name Run_200 01
datacolumns 19
datarows 50
range 0.016667 0.067708
endheader
time	ground_force_vx	ground_force_vy	ground_force_vz	ground_force_px	ground_force_py	ground_force_pz	ground_force_vx	ground_force_vy	ground_force_vz	ground_force_px	ground_force_py	ground_force_pz	ground_torque_x	ground_torque_y	ground_torque_z	ground_torque_x	ground_torque_y	ground_torque_z
0.016667	0.000000	0.000000	0.000000	0.000000	0.000000	0.000000	-9.593024	1405.318359	71.464111	0.447078	0.000000	-0.381753	0.000000	0.000000	0.000000	0.000000	-6.768285	0.000000	
0.017708	0.000000	0.000000	0.000000	0.000000	0.000000	0.000000	-8.072008	1399.562500	70.994492	0.446432	0.000000	-0.381959	0.000000	0.000000	0.000000	0.000000	-6.652440	0.000000	
0.018750	0.000000	0.000000	0.000000	0.000000	0.000000	0.000000	-6.500506	1393.574829	70.509972	0.445753	0.000000	-0.382171	0.000000	0.000000	0.000000	0.000000	-6.538126	0.000000	
0.019792	0.000000	0.000000	0.000000	0.000000	0.000000	0.000000	-4.885529	1387.366089	70.013641	0.445039	0.000000	-0.382389	0.000000	0.000000	0.000000	0.000000	-6.425539	0.000000	
0.020833	0.000000	0.000000	0.000000	0.000000	0.000000	0.000000	-3.232614	1380.942139	69.508377	0.444292	0.000000	-0.382611	0.000000	0.000000	0.000000	0.000000	-6.314869	0.000000	
0.021875	0.000000	0.000000	0.000000	0.000000	0.000000	0.000000	-1.546291	1374.305664	68.996849	0.443508	0.000000	-0.382836	0.000000	0.000000	0.000000	0.000000	-6.206292	0.000000	
0.022917	0.000000	0.000000	0.000000	0.000000	0.000000	0.000000	0.169630	1367.457764	68.481461	0.442689	0.000000	-0.383062	0.000000	0.000000	0.000000	0.000000	-6.099977	0.000000	
0.023958	0.000000	0.000000	0.000000	0.000000	0.000000	0.000000	1.911860	1360.399170	67.964333	0.441833	0.000000	-0.383290	0.000000	0.000000	0.000000	0.000000	-5.996080	0.000000	
0.025000	0.000000	0.000000	0.000000	0.000000	0.000000	0.000000	3.677459	1353.130249	67.447304	0.440939	0.000000	-0.383517	0.000000	0.000000	0.000000	0.000000	-5.894745	0.000000	
0.026042	0.000000	0.000000	0.000000	0.000000	0.000000	0.000000	5.463681	1345.651733	66.931877	0.440010	0.000000	-0.383743	0.000000	0.000000	0.000000	0.000000	-5.796101	0.000000	
0.027083	0.000000	0.000000	0.000000	0.000000	0.000000	0.000000	7.267836	1337.964600	66.419220	0.439043	0.000000	-0.383967	0.000000	0.000000	0.000000	0.000000	-5.700266	0.000000	
0.028125	0.000000	0.000000	0.000000	0.000000	0.000000	0.000000	9.087156	1330.070190	65.910141	0.438042	0.000000	-0.384189	0.000000	0.000000	0.000000	0.000000	-5.607341	0.000000	
0.029167	0.000000	0.000000	0.000000	0.000000	0.000000	0.000000	10.918701	1321.970215	65.405128	0.437006	0.000000	-0.384409	0.000000	0.000000	0.000000	0.000000	-5.517415	0.000000	
0.030208	0.000000	0.000000	0.000000	0.000000	0.000000	0.000000	12.759292	1313.667358	64.904289	0.435937	0.000000	-0.384626	0.000000	0.000000	0.000000	0.000000	-5.430557	0.000000	
0.031250	0.000000	0.000000	0.000000	0.000000	0.000000	0.000000	14.605496	1305.164429	64.407425	0.434838	0.000000	-0.384840	0.000000	0.000000	0.000000	0.000000	-5.346825	0.000000	
0.032292	0.000000	0.000000	0.000000	0.000000	0.000000	0.000000	16.453661	1296.464966	63.914013	0.433710	0.000000	-0.385052	0.000000	0.000000	0.000000	0.000000	-5.266258	0.000000	
0.033333	0.000000	0.000000	0.000000	0.000000	0.000000	0.000000	18.299992	1287.573364	63.423267	0.432555	0.000000	-0.385260	0.000000	0.000000	0.000000	0.000000	-5.188881	0.000000	
0.034375	0.000000	0.000000	0.000000	0.000000	0.000000	0.000000	20.140661	1278.494385	62.934128	0.431375	0.000000	-0.385466	0.000000	0.000000	0.000000	0.000000	-5.114701	0.000000	
0.035417	0.000000	0.000000	0.000000	0.000000	0.000000	0.000000	21.971952	1269.233398	62.445339	0.430174	0.000000	-0.385669	0.000000	0.000000	0.000000	0.000000	-5.043709	0.000000	
0.036458	0.000000	0.000000	0.000000	0.000000	0.000000	0.000000	23.790396	1259.796631	61.955460	0.428951	0.000000	-0.385869	0.000000	0.000000	0.000000	0.000000	-4.975882	0.000000	
0.037500	0.000000	0.000000	0.000000	0.000000	0.000000	0.000000	25.592905	1250.190674	61.462933	0.427711	0.000000	-0.386068	0.000000	0.000000	0.000000	0.000000	-4.911180	0.000000	
0.038542	0.000000	0.000000	0.000000	0.000000	0.000000	0.000000	27.376875	1240.422852	60.966103	0.426455	0.000000	-0.386264	0.000000	0.000000	0.000000	0.000000	-4.849547	0.000000	
0.039583	0.000000	0.000000	0.000000	0.000000	0.000000	0.000000	29.140244	1230.500732	60.463287	0.425185	0.000000	-0.386459	0.000000	0.000000	0.000000	0.000000	-4.790913	0.000000	
0.040625	0.000000	0.000000	0.000000	0.000000	0.000000	0.000000	30.881506	1220.432373	59.952785	0.423902	0.000000	-0.386651	0.000000	0.000000	0.000000	0.000000	-4.735194	0.000000	
0.041667	0.000000	0.000000	0.000000	0.000000	0.000000	0.000000	32.599674	1210.226074	59.432953	0.422608	0.000000	-0.386842	0.000000	0.000000	0.000000	0.000000	-4.682291	0.000000	
0.042708	0.000000	0.000000	0.000000	0.000000	0.000000	0.000000	34.294186	1199.890137	58.902203	0.421304	0.000000	-0.387030	0.000000	0.000000	0.000000	0.000000	-4.632092	0.000000	
0.043750	0.000000	0.000000	0.000000	0.000000	0.000000	0.000000	35.964798	1189.432739	58.359055	0.419991	0.000000	-0.387216	0.000000	0.000000	0.000000	0.000000	-4.584474	0.000000	
0.044792	0.000000	0.000000	0.000000	0.000000	0.000000	0.000000	37.611427	1178.861694	57.802151	0.418670	0.000000	-0.387400	0.000000	0.000000	0.000000	0.000000	-4.539300	0.000000	
0.045833	0.000000	0.000000	0.000000	0.000000	0.000000	0.000000	39.234001	1168.184814	57.230274	0.417341	0.000000	-0.387581	0.000000	0.000000	0.000000	0.000000	-4.496425	0.000000	
0.046875	0.000000	0.000000	0.000000	0.000000	0.000000	0.000000	40.832344	1157.409180	56.642368	0.416004	0.000000	-0.387759	0.000000	0.000000	0.000000	0.000000	-4.455691	0.000000	
0.047917	0.000000	0.000000	0.000000	0.000000	0.000000	0.000000	42.406040	1146.541382	56.037537	0.414661	0.000000	-0.387932	0.000000	0.000000	0.000000	0.000000	-4.416933	0.000000	
0.048958	0.000000	0.000000	0.000000	0.000000	0.000000	0.000000	43.954391	1135.587524	55.415043	0.413311	0.000000	-0.388102	0.000000	0.000000	0.000000	0.000000	-4.379978	0.000000	
0.050000	0.000000	0.000000	0.000000	0.000000	0.000000	0.000000	45.476387	1124.552979	54.774311	0.411954	0.000000	-0.388267	0.000000	0.000000	0.000000	0.000000	-4.344645	0.000000	
0.051042	0.000000	0.000000	0.000000	0.000000	0.000000	0.000000	46.970757	1113.442749	54.114918	0.410590	0.000000	-0.388426	0.000000	0.000000	0.000000	0.000000	-4.310748	0.000000	
0.052083	0.000000	0.000000	0.000000	0.000000	0.000000	0.000000	48.436035	1102.261597	53.436569	0.409219	0.000000	-0.388580	0.000000	0.000000	0.000000	0.000000	-4.278097	0.000000	
0.053125	0.000000	0.000000	0.000000	0.000000	0.000000	0.000000	49.870697	1091.013428	52.739109	0.407842	0.000000	-0.388727	0.000000	0.000000	0.000000	0.000000	-4.246496	0.000000	
0.054167	0.000000	0.000000	0.000000	0.000000	0.000000	0.000000	51.273308	1079.702637	52.022484	0.406459	0.000000	-0.388867	0.000000	0.000000	0.000000	0.000000	-4.215749	0.000000	
0.055208	0.000000	0.000000	0.000000	0.000000	0.000000	0.000000	52.642651	1068.333008	51.286728	0.405069	0.000000	-0.388999	0.000000	0.000000	0.000000	0.000000	-4.185658	0.000000	
0.056250	0.000000	0.000000	0.000000	0.000000	0.000000	0.000000	53.977905	1056.908447	50.531952	0.403674	0.000000	-0.389123	0.000000	0.000000	0.000000	0.000000	-4.156024	0.000000	
0.057292	0.000000	0.000000	0.000000	0.000000	0.000000	0.000000	55.278721	1045.433350	49.758316	0.402273	0.000000	-0.389238	0.000000	0.000000	0.000000	0.000000	-4.126649	0.000000	
0.058333	0.000000	0.000000	0.000000	0.000000	0.000000	0.000000	56.545319	1033.911865	48.966026	0.400866	0.000000	-0.389343	0.000000	0.000000	0.000000	0.000000	-4.097338	0.000000	
0.059375	0.000000	0.000000	0.000000	0.000000	0.000000	0.000000	57.778481	1022.348633	48.155304	0.399454	0.000000	-0.389438	0.000000	0.000000	0.000000	0.000000	-4.067900	0.000000	
0.060417	0.000000	0.000000	0.000000	0.000000	0.000000	0.000000	58.979523	1010.748230	47.326382	0.398038	0.000000	-0.389522	0.000000	0.000000	0.000000	0.000000	-4.038147	0.000000	
0.061458	0.000000	0.000000	0.000000	0.000000	0.000000	0.000000	60.150181	999.115601	46.479496	0.396617	0.000000	-0.389595	0.000000	0.000000	0.000000	0.000000	-4.007898	0.000000	
0.062500	0.000000	0.000000	0.000000	0.000000	0.000000	0.000000	61.292469	987.455688	45.614857	0.395192	0.000000	-0.389657	0.000000	0.000000	0.000000	0.000000	-3.976977	0.000000	
0.063542	0.000000	0.000000	0.000000	0.000000	0.000000	0.000000	62.408478	975.773315	44.732670	0.393764	0.000000	-0.389706	0.000000	0.000000	0.000000	0.000000	-3.945217	0.000000	
0.064583	0.000000	0.000000	0.000000	0.000000	0.000000	0.000000	63.500187	964.073181	43.833103	0.392332	0.000000	-0.389743	0.000000	0.000000	0.000000	0.000000	-3.912461	0.000000	
0.065625	0.000000	0.000000	0.000000	0.000000	0.000000	0.000000	64.569244	952.359680	42.916317	0.390897	0.000000	-0.389767	0.000000	0.000000	0.000000	0.000000	-3.878559	0.000000	
0.066667	0.000000	0.000000	0.000000	0.000000	0.000000	0.000000	65.616806	940.636658	41.982426	0.389459	0.000000	-0.389779	0.000000	0.000000	0.000000	0.000000	-3.843375	0.000000	
0.067708	0.000000	0.000000	0.000000	0.000000	0.000000	0.000000	66.643356	928.907654	41.031536	0.388018	0.000000	-0.389779	0.000000	0.000000	0.000000	0.000000	-3.806782	0.000000	
